<?xml version="1.0" encoding="iso-8859-1"?>
<!-- Generator: Adobe Illustrator 19.0.0, SVG Export Plug-In . SVG Version: 6.00 Build 0)  -->
<svg version="1.1" id="Layer_1" xmlns="http://www.w3.org/2000/svg" xmlns:xlink="http://www.w3.org/1999/xlink" x="0px" y="0px"
	 viewBox="0 0 512.108 512.108" style="enable-background:new 0 0 512.108 512.108;" xml:space="preserve">
<g transform="translate(1 1)">
	<path style="fill:#FFFFFF;" d="M144.214,243.161c8.533,3.413,10.24,0.853-0.853-11.947c5.973,7.68,12.8,15.36,19.627,21.333
		l11.093,11.093l-40.96-180.907c-1.707-6.827-1.707-12.8,0-18.773c4.267-11.947,0.853-20.48,11.093-22.187c-1.707,0-2.56,0-4.267,0
		c-14.507,0-27.307,8.533-32.427,22.187c-1.707,5.973-1.707,11.947,0,18.773L144.214,243.161z"/>
	<g>
		<path style="fill:#FFA800;" d="M370.348,55.428c12.8,7.68,4.267,23.893,0,37.547l-42.667,145.067l44.373-66.56l21.333-77.653
			c4.267-14.507-0.853-29.867-13.653-37.547c-5.12-4.267-11.093-5.973-17.92-5.973c-1.707,0-2.56,0-4.267,0.853
			C362.668,52.014,366.934,52.868,370.348,55.428"/>
		<path style="fill:#FFA800;" d="M445.441,131.374c-4.267-0.853-9.387,0.853-14.507,3.413c15.36,7.68,20.48,27.307,12.8,43.52
			l-42.667,90.453c-9.387,19.627-13.653,40.107-13.653,61.44v27.307c0,29.867-9.387,51.2-17.067,59.733
			c-5.12,5.973-8.533,17.067-10.24,24.747c-7.68,32.427-16.213,60.587-49.493,60.587c33.28,0,67.413-28.16,75.093-60.587
			c1.707-7.68,5.12-18.773,10.24-24.747c7.68-8.533,17.067-29.867,17.067-59.733v-27.307c0-21.333,4.267-41.813,13.653-61.44
			l42.667-90.453C478.721,158.681,468.481,133.934,445.441,131.374"/>
	</g>
	<g>
		<path style="fill:#FFE100;" d="M387.414,67.374c12.8,7.68,12.8,11.947,8.533,26.453l-42.667,144.213l44.373-66.56l21.333-77.653
			c4.267-14.507-0.853-29.867-13.653-37.547c-5.12-4.267-11.093-5.973-17.92-5.973c-1.707,0-2.56,0-4.267,0.853
			C388.268,52.014,384.001,64.814,387.414,67.374"/>
		<path style="fill:#FFE100;" d="M471.041,131.374c-4.267-0.853-9.387,0.853-14.507,3.413c15.36,7.68,20.48,27.307,12.8,43.52
			l-42.667,90.453c-9.387,19.627-13.653,40.107-13.653,61.44v27.307c0,29.867-9.387,51.2-17.067,59.733
			c-5.12,5.973-8.533,17.067-10.24,24.747c-7.68,32.427-16.213,60.587-49.493,60.587c33.28,0,67.413-28.16,75.093-60.587
			c1.707-7.68,5.12-18.773,10.24-24.747c7.68-8.533,17.067-29.867,17.067-59.733v-27.307c0-21.333,4.267-41.813,13.653-61.44
			l42.667-90.453C504.321,158.681,494.081,133.934,471.041,131.374"/>
	</g>
	<path style="fill:#FFFFFF;" d="M190.294,448.814l-16.213-48.64c-26.453-27.307-51.2-68.267-51.2-68.267
		c-28.16-50.347-76.8-99.84-76.8-102.4s-1.707-10.24,8.533-17.067c3.413-1.707,5.973-4.267,10.24-5.12
		c6.827-2.56,29.867,9.387,49.493,20.48c-20.48-20.48-52.053-29.867-75.093-20.48c-4.267,0.853-6.827,3.413-10.24,5.12
		c-10.24,6.827-8.533,14.507-8.533,17.067s48.64,52.053,76.8,102.4c0,0,24.747,40.96,51.2,68.267l16.213,48.64
		c11.093,32.427,40.96,53.76,74.24,53.76C205.654,502.574,201.388,481.241,190.294,448.814"/>
	<path style="fill:#FFE100;" d="M174.081,263.641l-11.093-11.093c-6.827-6.827-13.653-14.507-19.627-21.333
		c34.987,41.813-63.147-29.867-78.507-23.893c-4.267,0.853-6.827,3.413-10.24,5.12c-10.24,6.827-8.533,14.507-8.533,17.067
		s48.64,52.053,76.8,102.4c0,0,24.747,40.96,51.2,68.267l16.213,48.64c10.24,32.427,15.36,53.76,48.64,53.76h71.68
		c33.28,0,41.813-28.16,49.493-60.587c1.707-7.68,5.12-18.773,10.24-24.747c7.68-8.533,17.067-29.867,17.067-59.733v-27.307
		c0-21.333,4.267-41.813,13.653-61.44l42.667-90.453c9.387-19.627,0-44.373-23.893-46.933c-10.24-0.853-24.747,5.973-38.4,24.747
		l-53.76,81.92l42.667-144.213c4.267-14.507,12.8-29.867,0-37.547c-5.12-4.267-11.947-5.973-17.92-5.973
		c-18.773,0-20.48,20.48-24.747,34.133l-42.667,128V41.774c0-17.92-13.653-33.28-31.573-34.133
		c-19.627-0.853-36.693,11.093-36.693,34.133v187.733l-42.667-151.04c-6.827-24.747-6.827-36.693-25.6-36.693
		c-14.507,0-10.24,8.533-15.36,22.187c-1.707,5.973-1.707,11.947,0,18.773L174.081,263.641"/>
	<path d="M182.614,434.308c-1.707,0-3.413-0.853-5.12-1.707c-5.12-4.267-9.387-6.827-14.507-11.093
		c-6.827-4.267-12.8-9.387-19.627-15.36c-3.413-3.413-3.413-8.533-0.853-11.947c3.413-3.413,8.533-3.413,11.947-0.853
		c5.973,5.12,11.947,9.387,17.92,13.653c5.12,3.413,10.24,6.827,15.36,11.947c3.413,3.413,4.267,8.533,0.853,11.947
		C187.734,433.454,185.174,434.308,182.614,434.308z"/>
	<path d="M361.814,442.841c-2.56,0-5.12-1.707-6.827-3.413c-2.56-4.267-1.707-9.387,2.56-11.947
		c5.12-3.413,11.093-5.973,17.067-7.68c5.973-1.707,12.8-4.267,15.36-7.68c3.413-3.413,8.533-3.413,11.947,0
		c3.413,3.413,3.413,8.533,0,11.947c-5.973,5.973-14.507,9.387-22.187,11.947c-5.12,1.707-10.24,3.413-12.8,5.973
		C365.228,441.988,363.521,442.841,361.814,442.841z"/>
	<path d="M157.014,289.241c-3.413,0-5.973-1.707-7.68-5.12l-8.533-17.067c-1.707-4.267,0-9.387,3.413-11.093
		c4.267-1.707,9.387,0,11.093,3.413l8.533,17.067c1.707,4.267,0,9.387-3.413,11.093
		C159.574,289.241,158.721,289.241,157.014,289.241z"/>
	<path d="M285.014,232.068c-5.12,0-8.533-3.413-8.533-8.533v-11.093c0-5.12,3.413-8.533,8.533-8.533c5.12,0,8.533,3.413,8.533,8.533
		v11.093C293.548,228.654,290.134,232.068,285.014,232.068z"/>
	<path d="M148.481,272.174c-4.267,0-7.68-2.56-8.533-6.827l-20.48-88.747c-0.853-4.267,1.707-9.387,6.827-10.24
		c4.267-0.853,9.387,1.707,10.24,6.827l20.48,88.747c0.853,4.267-1.707,9.387-6.827,10.24
		C149.334,272.174,149.334,272.174,148.481,272.174z"/>
	<path d="M310.614,511.108h-71.68c-37.547,0-70.827-23.893-82.773-59.733l-15.36-46.933c-26.453-28.16-50.347-66.56-51.2-68.267
		c-19.627-35.84-51.2-71.68-65.707-88.747c-11.947-13.653-12.8-14.507-11.947-19.627c0-3.413-0.853-14.507,11.947-23.04
		c4.267-2.56,7.68-5.12,11.947-5.973c28.16-10.24,66.56,0.853,87.893,26.453l0.853,0.853c5.973,6.827,11.947,13.653,17.92,20.48
		l11.093,11.093c3.413,3.413,3.413,8.533,0,11.947s-8.533,3.413-11.947,0l-10.24-10.24c-6.827-6.827-13.653-14.507-19.627-21.333
		l-0.853-0.853c-17.067-19.627-47.787-29.867-69.12-21.333c-2.56,0.853-5.12,2.56-8.533,4.267c-4.267,2.56-4.267,4.267-4.267,6.827
		c1.707,1.707,5.12,5.973,7.68,9.387c15.36,17.92,47.787,54.613,68.267,91.307c0,0,24.747,40.107,50.347,66.56
		c0.853,0.853,1.707,1.707,1.707,3.413l16.213,48.64c9.387,28.16,35.84,47.787,66.56,47.787h70.827
		c29.013,0,60.587-24.747,66.56-53.76c2.56-12.8,6.827-23.04,11.947-29.013c5.12-5.973,15.36-24.747,15.36-53.76v-27.307
		c0-22.187,5.12-45.227,14.507-64.853l42.667-90.453c4.267-7.68,4.267-17.067,0-23.893c-3.413-5.973-9.387-10.24-17.067-11.093
		c-3.413,0-15.36,0-30.72,21.333l-53.76,81.067c-2.56,3.413-6.827,5.12-10.24,3.413c-3.413-1.707-5.973-5.973-4.267-10.24
		l40.107-144.213c3.413-11.093-0.853-23.04-9.387-28.16c-5.12-2.56-9.387-4.267-14.507-4.267c-13.653,0-23.04,17.92-25.6,28.16
		l-42.667,128c-1.707,4.267-5.12,5.973-9.387,5.973c-4.267-0.853-6.827-4.267-6.827-8.533V41.774c0-13.653-10.24-24.747-23.04-25.6
		c-8.533-0.853-15.36,1.707-20.48,6.827c-5.973,4.267-8.533,11.093-8.533,18.773v187.733c0,4.267-3.413,7.68-7.68,8.533
		c-4.267,0.853-8.533-1.707-9.387-5.973l-42.667-151.04c-6.827-25.6-14.507-30.72-25.6-30.72s-20.48,6.827-23.893,16.213
		c-1.707,3.413-1.707,8.533,0,13.653l5.973,28.16c0.853,4.267-1.707,9.387-6.827,10.24c-4.267,0.853-9.387-1.707-10.24-6.827
		l-5.973-27.307c-1.707-8.533-1.707-16.213,0.853-23.04c5.973-17.067,21.333-28.16,40.107-28.16
		c27.307,0,36.693,22.187,42.667,43.52l25.6,91.307V41.774c0-12.8,4.267-23.893,12.8-31.573c8.533-7.68,20.48-11.947,33.28-11.093
		c22.187,1.707,39.253,20.48,39.253,42.667v117.76l26.453-78.507c5.12-17.92,19.627-39.253,41.813-39.253
		c8.533,0,16.213,2.56,23.04,6.827c15.36,9.387,22.187,29.013,17.067,46.933l-25.6,93.013l23.893-36.693
		c19.627-27.307,37.547-29.867,46.08-29.013c12.8,1.707,23.893,8.533,29.867,19.627c6.827,11.947,6.827,27.307,0.853,40.107
		l-42.667,90.453c-8.533,17.92-12.8,38.4-12.8,58.027v26.453c0,31.573-10.24,55.467-18.773,65.707
		c-3.413,3.413-5.973,11.093-8.533,21.333C385.708,480.388,347.308,511.108,310.614,511.108z"/>
	<path d="M131.414,144.174c0-5.12-3.413-8.533-8.533-8.533c-5.12,0-8.533,3.413-8.533,8.533c0,5.12,3.413,8.533,8.533,8.533
		C128.001,152.708,131.414,149.294,131.414,144.174"/>
</g>
<g>
</g>
<g>
</g>
<g>
</g>
<g>
</g>
<g>
</g>
<g>
</g>
<g>
</g>
<g>
</g>
<g>
</g>
<g>
</g>
<g>
</g>
<g>
</g>
<g>
</g>
<g>
</g>
<g>
</g>
</svg>
